{
    "asset" : {
        "generator" : "Khronos glTF Blender I/O v0.9.36",
        "version" : "2.0"
    },
    "scene" : 0,
    "scenes" : [
        {
            "name" : "Scene",
            "nodes" : [
                0,
                1,
                2,
                3,
                4,
                5,
                6,
                7,
                8,
                9,
                10,
                11,
                12
            ]
        }
    ],
    "nodes" : [
        {
            "mesh" : 0,
            "name" : "Cube",
            "rotation" : [
                0.9914448857307434,
                0,
                -0.13052619993686676,
                -2.797163176637696e-07
            ],
            "translation" : [
                0.0035375505685806274,
                0,
                0.0045832181349396706
            ]
        },
        {
            "mesh" : 1,
            "name" : "Text",
            "rotation" : [
                0.7010573744773865,
                0.09229595959186554,
                -0.09229595959186554,
                0.7010573744773865
            ],
            "scale" : [
                0.19063621759414673,
                0.19063621759414673,
                0.19063621759414673
            ],
            "translation" : [
                -0.12035727500915527,
                0.7316248416900635,
                1.0888903141021729
            ]
        },
        {
            "mesh" : 2,
            "name" : "Text.001",
            "rotation" : [
                -0.09229613840579987,
                0.7010573744773865,
                -0.7010573744773865,
                -0.09229613095521927
            ],
            "scale" : [
                0.16165879368782043,
                0.16165879368782043,
                0.16165879368782043
            ],
            "translation" : [
                0.10240539908409119,
                0.7540291547775269,
                -1.067915439605713
            ]
        },
        {
            "mesh" : 3,
            "name" : "Text.002",
            "rotation" : [
                -0.4304591417312622,
                -0.5609856843948364,
                0.5609856843948364,
                -0.4304591119289398
            ],
            "scale" : [
                0.1712186336517334,
                0.1712186336517334,
                0.1712186336517334
            ],
            "translation" : [
                1.0754538774490356,
                0.8494380712509155,
                0.08822113275527954
            ]
        },
        {
            "name" : "Text.003",
            "rotation" : [
                -0.5609856247901917,
                0.430459201335907,
                -0.43045923113822937,
                -0.5609856247901917
            ],
            "scale" : [
                0.1673450917005539,
                0.1673450917005539,
                0.1673450917005539
            ],
            "translation" : [
                -1.0612380504608154,
                0.8054208159446716,
                -0.05947619676589966
            ]
        },
        {
            "mesh" : 4,
            "name" : "Text.004",
            "rotation" : [
                -0.4304591417312622,
                -0.5609856843948364,
                0.5609856843948364,
                -0.4304591119289398
            ],
            "scale" : [
                0.1766955703496933,
                0.1766955703496933,
                0.1766955703496933
            ],
            "translation" : [
                0.8616818189620972,
                -0.15334013104438782,
                -0.6605384945869446
            ]
        },
        {
            "mesh" : 5,
            "name" : "Text.005",
            "rotation" : [
                -0.4304591417312622,
                -0.5609856843948364,
                0.5609856843948364,
                -0.4304591119289398
            ],
            "scale" : [
                0.155981183052063,
                0.155981183052063,
                0.155981183052063
            ],
            "translation" : [
                1.2371999025344849,
                -0.15894001722335815,
                0.6918654441833496
            ]
        },
        {
            "mesh" : 6,
            "name" : "Text.006",
            "rotation" : [
                0.7010573744773865,
                0.09229595959186554,
                -0.09229595959186554,
                0.7010573744773865
            ],
            "scale" : [
                0.14617498219013214,
                0.14617498219013214,
                0.14617498219013214
            ],
            "translation" : [
                0.6593306064605713,
                -0.33609575033187866,
                0.8800132870674133
            ]
        },
        {
            "mesh" : 7,
            "name" : "Text.007",
            "rotation" : [
                0.7010573744773865,
                0.09229595959186554,
                -0.09229595959186554,
                0.7010573744773865
            ],
            "scale" : [
                0.16346265375614166,
                0.16346265375614166,
                0.16346265375614166
            ],
            "translation" : [
                -0.6540813446044922,
                -0.22481298446655273,
                1.2319012880325317
            ]
        },
        {
            "mesh" : 8,
            "name" : "Text.008",
            "rotation" : [
                -0.09229613840579987,
                0.7010573744773865,
                -0.7010573744773865,
                -0.09229613095521927
            ],
            "scale" : [
                0.163682758808136,
                0.163682758808136,
                0.163682758808136
            ],
            "translation" : [
                -0.4039212167263031,
                -0.19662374258041382,
                -0.9322456121444702
            ]
        },
        {
            "name" : "Text.009",
            "rotation" : [
                -0.09229613840579987,
                0.7010573744773865,
                -0.7010573744773865,
                -0.09229613095521927
            ],
            "scale" : [
                0.13154703378677368,
                0.13154703378677368,
                0.13154703378677368
            ],
            "translation" : [
                0.6805181503295898,
                -0.41863417625427246,
                -1.2179409265518188
            ]
        },
        {
            "mesh" : 9,
            "name" : "Text.010",
            "rotation" : [
                -0.5609856247901917,
                0.430459201335907,
                -0.43045923113822937,
                -0.5609856247901917
            ],
            "scale" : [
                0.17130349576473236,
                0.17130349576473236,
                0.17130349576473236
            ],
            "translation" : [
                -1.1930713653564453,
                -0.21065577864646912,
                -0.5920090675354004
            ]
        },
        {
            "mesh" : 10,
            "name" : "Text.011",
            "rotation" : [
                -0.5609856247901917,
                0.430459201335907,
                -0.43045923113822937,
                -0.5609856247901917
            ],
            "scale" : [
                0.15933237969875336,
                0.15933237969875336,
                0.15933237969875336
            ],
            "translation" : [
                -0.9381794333457947,
                -0.23770654201507568,
                0.3997848331928253
            ]
        }
    ],
    "materials" : [
        {
            "doubleSided" : true,
            "name" : "Material",
            "pbrMetallicRoughness" : {
                "baseColorTexture" : {
                    "index" : 0,
                    "texCoord" : 0
                },
                "metallicFactor" : 0,
                "roughnessFactor" : 0.4000000059604645
            }
        }
    ],
    "meshes" : [
        {
            "name" : "Cube",
            "primitives" : [
                {
                    "attributes" : {
                        "POSITION" : 0,
                        "NORMAL" : 1,
                        "TEXCOORD_0" : 2
                    },
                    "indices" : 3,
                    "material" : 0
                }
            ]
        },
        {
            "name" : "Text",
            "primitives" : [
                {
                    "attributes" : {
                        "POSITION" : 4,
                        "NORMAL" : 5
                    },
                    "indices" : 6
                }
            ]
        },
        {
            "name" : "Text.001",
            "primitives" : [
                {
                    "attributes" : {
                        "POSITION" : 7,
                        "NORMAL" : 8
                    },
                    "indices" : 9
                }
            ]
        },
        {
            "name" : "Text.002",
            "primitives" : [
                {
                    "attributes" : {
                        "POSITION" : 10,
                        "NORMAL" : 11
                    },
                    "indices" : 12
                }
            ]
        },
        {
            "name" : "Text.004",
            "primitives" : [
                {
                    "attributes" : {
                        "POSITION" : 13,
                        "NORMAL" : 14
                    },
                    "indices" : 15
                }
            ]
        },
        {
            "name" : "Text.005",
            "primitives" : [
                {
                    "attributes" : {
                        "POSITION" : 16,
                        "NORMAL" : 17
                    },
                    "indices" : 9
                }
            ]
        },
        {
            "name" : "Text.006",
            "primitives" : [
                {
                    "attributes" : {
                        "POSITION" : 18,
                        "NORMAL" : 19
                    },
                    "indices" : 20
                }
            ]
        },
        {
            "name" : "Text.007",
            "primitives" : [
                {
                    "attributes" : {
                        "POSITION" : 21,
                        "NORMAL" : 22
                    },
                    "indices" : 12
                }
            ]
        },
        {
            "name" : "Text.008",
            "primitives" : [
                {
                    "attributes" : {
                        "POSITION" : 23,
                        "NORMAL" : 24
                    },
                    "indices" : 12
                }
            ]
        },
        {
            "name" : "Text.010",
            "primitives" : [
                {
                    "attributes" : {
                        "POSITION" : 25,
                        "NORMAL" : 26
                    },
                    "indices" : 27
                }
            ]
        },
        {
            "name" : "Text.011",
            "primitives" : [
                {
                    "attributes" : {
                        "POSITION" : 28,
                        "NORMAL" : 29
                    },
                    "indices" : 9
                }
            ]
        }
    ],
    "textures" : [
        {
            "source" : 0
        }
    ],
    "images" : [
        {
            "mimeType" : "image/png",
            "name" : "arrow",
            "uri" : "arrow.png"
        }
    ],
    "accessors" : [
        {
            "bufferView" : 0,
            "componentType" : 5126,
            "count" : 16,
            "max" : [
                1,
                1,
                1
            ],
            "min" : [
                -1,
                -1,
                -1
            ],
            "type" : "VEC3"
        },
        {
            "bufferView" : 1,
            "componentType" : 5126,
            "count" : 16,
            "type" : "VEC3"
        },
        {
            "bufferView" : 2,
            "componentType" : 5126,
            "count" : 16,
            "type" : "VEC2"
        },
        {
            "bufferView" : 3,
            "componentType" : 5123,
            "count" : 24,
            "type" : "SCALAR"
        },
        {
            "bufferView" : 4,
            "componentType" : 5126,
            "count" : 657,
            "max" : [
                4.790000915527344,
                0,
                0.009000000543892384
            ],
            "min" : [
                0,
                0,
                -0.6910000443458557
            ],
            "type" : "VEC3"
        },
        {
            "bufferView" : 5,
            "componentType" : 5126,
            "count" : 657,
            "type" : "VEC3"
        },
        {
            "bufferView" : 6,
            "componentType" : 5123,
            "count" : 1464,
            "type" : "SCALAR"
        },
        {
            "bufferView" : 7,
            "componentType" : 5126,
            "count" : 1826,
            "max" : [
                5.338000297546387,
                0,
                1.0089999437332153
            ],
            "min" : [
                0,
                0,
                -0.6820000410079956
            ],
            "type" : "VEC3"
        },
        {
            "bufferView" : 8,
            "componentType" : 5126,
            "count" : 1826,
            "type" : "VEC3"
        },
        {
            "bufferView" : 9,
            "componentType" : 5123,
            "count" : 4131,
            "type" : "SCALAR"
        },
        {
            "bufferView" : 10,
            "componentType" : 5126,
            "count" : 1533,
            "max" : [
                4.827000141143799,
                0,
                1.2300000190734863
            ],
            "min" : [
                0.04800000041723251,
                0,
                -0.6914074420928955
            ],
            "type" : "VEC3"
        },
        {
            "bufferView" : 11,
            "componentType" : 5126,
            "count" : 1533,
            "type" : "VEC3"
        },
        {
            "bufferView" : 12,
            "componentType" : 5123,
            "count" : 3501,
            "type" : "SCALAR"
        },
        {
            "bufferView" : 13,
            "componentType" : 5126,
            "count" : 677,
            "max" : [
                2.7690000534057617,
                0,
                1.0089999437332153
            ],
            "min" : [
                0,
                0,
                -0.6860000491142273
            ],
            "type" : "VEC3"
        },
        {
            "bufferView" : 14,
            "componentType" : 5126,
            "count" : 677,
            "type" : "VEC3"
        },
        {
            "bufferView" : 15,
            "componentType" : 5123,
            "count" : 1464,
            "type" : "SCALAR"
        },
        {
            "bufferView" : 16,
            "componentType" : 5126,
            "count" : 1826,
            "max" : [
                5.338000297546387,
                0,
                1.0089999437332153
            ],
            "min" : [
                0,
                0,
                -0.6820000410079956
            ],
            "type" : "VEC3"
        },
        {
            "bufferView" : 17,
            "componentType" : 5126,
            "count" : 1826,
            "type" : "VEC3"
        },
        {
            "bufferView" : 18,
            "componentType" : 5126,
            "count" : 213,
            "max" : [
                2.998000144958496,
                0,
                0.009000000543892384
            ],
            "min" : [
                0.8740001320838928,
                0,
                -0.6910000443458557
            ],
            "type" : "VEC3"
        },
        {
            "bufferView" : 19,
            "componentType" : 5126,
            "count" : 213,
            "type" : "VEC3"
        },
        {
            "bufferView" : 20,
            "componentType" : 5123,
            "count" : 477,
            "type" : "SCALAR"
        },
        {
            "bufferView" : 21,
            "componentType" : 5126,
            "count" : 1533,
            "max" : [
                4.827000141143799,
                0,
                1.2300000190734863
            ],
            "min" : [
                0.04800000041723251,
                0,
                -0.6914074420928955
            ],
            "type" : "VEC3"
        },
        {
            "bufferView" : 22,
            "componentType" : 5126,
            "count" : 1533,
            "type" : "VEC3"
        },
        {
            "bufferView" : 23,
            "componentType" : 5126,
            "count" : 1533,
            "max" : [
                4.827000141143799,
                0,
                1.2300000190734863
            ],
            "min" : [
                0.04800000041723251,
                0,
                -0.6914074420928955
            ],
            "type" : "VEC3"
        },
        {
            "bufferView" : 24,
            "componentType" : 5126,
            "count" : 1533,
            "type" : "VEC3"
        },
        {
            "bufferView" : 25,
            "componentType" : 5126,
            "count" : 675,
            "max" : [
                3.046999931335449,
                0,
                1.0089999437332153
            ],
            "min" : [
                0,
                0,
                -0.6860000491142273
            ],
            "type" : "VEC3"
        },
        {
            "bufferView" : 26,
            "componentType" : 5126,
            "count" : 675,
            "type" : "VEC3"
        },
        {
            "bufferView" : 27,
            "componentType" : 5123,
            "count" : 1464,
            "type" : "SCALAR"
        },
        {
            "bufferView" : 28,
            "componentType" : 5126,
            "count" : 1826,
            "max" : [
                5.338000297546387,
                0,
                1.0089999437332153
            ],
            "min" : [
                0,
                0,
                -0.6820000410079956
            ],
            "type" : "VEC3"
        },
        {
            "bufferView" : 29,
            "componentType" : 5126,
            "count" : 1826,
            "type" : "VEC3"
        }
    ],
    "bufferViews" : [
        {
            "buffer" : 0,
            "byteLength" : 192,
            "byteOffset" : 0
        },
        {
            "buffer" : 0,
            "byteLength" : 192,
            "byteOffset" : 192
        },
        {
            "buffer" : 0,
            "byteLength" : 128,
            "byteOffset" : 384
        },
        {
            "buffer" : 0,
            "byteLength" : 48,
            "byteOffset" : 512
        },
        {
            "buffer" : 0,
            "byteLength" : 7884,
            "byteOffset" : 560
        },
        {
            "buffer" : 0,
            "byteLength" : 7884,
            "byteOffset" : 8444
        },
        {
            "buffer" : 0,
            "byteLength" : 2928,
            "byteOffset" : 16328
        },
        {
            "buffer" : 0,
            "byteLength" : 21912,
            "byteOffset" : 19256
        },
        {
            "buffer" : 0,
            "byteLength" : 21912,
            "byteOffset" : 41168
        },
        {
            "buffer" : 0,
            "byteLength" : 8262,
            "byteOffset" : 63080
        },
        {
            "buffer" : 0,
            "byteLength" : 18396,
            "byteOffset" : 71344
        },
        {
            "buffer" : 0,
            "byteLength" : 18396,
            "byteOffset" : 89740
        },
        {
            "buffer" : 0,
            "byteLength" : 7002,
            "byteOffset" : 108136
        },
        {
            "buffer" : 0,
            "byteLength" : 8124,
            "byteOffset" : 115140
        },
        {
            "buffer" : 0,
            "byteLength" : 8124,
            "byteOffset" : 123264
        },
        {
            "buffer" : 0,
            "byteLength" : 2928,
            "byteOffset" : 131388
        },
        {
            "buffer" : 0,
            "byteLength" : 21912,
            "byteOffset" : 134316
        },
        {
            "buffer" : 0,
            "byteLength" : 21912,
            "byteOffset" : 156228
        },
        {
            "buffer" : 0,
            "byteLength" : 2556,
            "byteOffset" : 178140
        },
        {
            "buffer" : 0,
            "byteLength" : 2556,
            "byteOffset" : 180696
        },
        {
            "buffer" : 0,
            "byteLength" : 954,
            "byteOffset" : 183252
        },
        {
            "buffer" : 0,
            "byteLength" : 18396,
            "byteOffset" : 184208
        },
        {
            "buffer" : 0,
            "byteLength" : 18396,
            "byteOffset" : 202604
        },
        {
            "buffer" : 0,
            "byteLength" : 18396,
            "byteOffset" : 221000
        },
        {
            "buffer" : 0,
            "byteLength" : 18396,
            "byteOffset" : 239396
        },
        {
            "buffer" : 0,
            "byteLength" : 8100,
            "byteOffset" : 257792
        },
        {
            "buffer" : 0,
            "byteLength" : 8100,
            "byteOffset" : 265892
        },
        {
            "buffer" : 0,
            "byteLength" : 2928,
            "byteOffset" : 273992
        },
        {
            "buffer" : 0,
            "byteLength" : 21912,
            "byteOffset" : 276920
        },
        {
            "buffer" : 0,
            "byteLength" : 21912,
            "byteOffset" : 298832
        }
    ],
    "buffers" : [
        {
            "byteLength" : 320744,
            "uri" : "direction2atccd.bin"
        }
    ]
}
