{
    "asset" : {
        "generator" : "Khronos glTF Blender I/O v0.9.36",
        "version" : "2.0"
    },
    "scene" : 0,
    "scenes" : [
        {
            "name" : "Scene",
            "nodes" : [
                0,
                1,
                2,
                3,
                4,
                5,
                6,
                7,
                8,
                9,
                10,
                11,
                12
            ]
        }
    ],
    "nodes" : [
        {
            "mesh" : 0,
            "name" : "Cube",
            "rotation" : [
                0.9914448857307434,
                0,
                -0.13052619993686676,
                -2.797163176637696e-07
            ],
            "translation" : [
                -0.0028162794187664986,
                0,
                -0.0017409492284059525
            ]
        },
        {
            "mesh" : 1,
            "name" : "Text",
            "rotation" : [
                0.7010573744773865,
                0.09229595959186554,
                -0.09229595959186554,
                0.7010573744773865
            ],
            "scale" : [
                0.1723918467760086,
                0.1723918467760086,
                0.1723918467760086
            ],
            "translation" : [
                -0.11221089959144592,
                0.7416327595710754,
                1.0786807537078857
            ]
        },
        {
            "mesh" : 2,
            "name" : "Text.001",
            "rotation" : [
                -0.09229613840579987,
                0.7010573744773865,
                -0.7010573744773865,
                -0.09229613095521927
            ],
            "scale" : [
                0.191442608833313,
                0.191442608833313,
                0.191442608833313
            ],
            "translation" : [
                0.08160459995269775,
                0.8288124203681946,
                -1.0703685283660889
            ]
        },
        {
            "mesh" : 3,
            "name" : "Text.002",
            "rotation" : [
                -0.4304591417312622,
                -0.5609856843948364,
                0.5609856843948364,
                -0.4304591119289398
            ],
            "scale" : [
                0.17027796804904938,
                0.17027796804904938,
                0.17027796804904938
            ],
            "translation" : [
                1.0496246814727783,
                0.8343885540962219,
                0.00921371579170227
            ]
        },
        {
            "mesh" : 4,
            "name" : "Text.003",
            "rotation" : [
                -0.5609856247901917,
                0.430459201335907,
                -0.43045923113822937,
                -0.5609856247901917
            ],
            "scale" : [
                0.16961286962032318,
                0.16961286962032318,
                0.16961286962032318
            ],
            "translation" : [
                -1.0727405548095703,
                0.8501778841018677,
                -0.08501467108726501
            ]
        },
        {
            "mesh" : 5,
            "name" : "Text.004",
            "rotation" : [
                -0.4304591417312622,
                -0.5609856843948364,
                0.5609856843948364,
                -0.4304591119289398
            ],
            "scale" : [
                0.18847036361694336,
                0.18847036361694336,
                0.18847036361694336
            ],
            "translation" : [
                0.9360110759735107,
                -0.31472164392471313,
                -0.36574870347976685
            ]
        },
        {
            "mesh" : 6,
            "name" : "Text.005",
            "rotation" : [
                -0.4304591417312622,
                -0.5609856843948364,
                0.5609856843948364,
                -0.4304591119289398
            ],
            "scale" : [
                0.16262097656726837,
                0.16262097656726837,
                0.16262097656726837
            ],
            "translation" : [
                1.2230559587478638,
                -0.3167177736759186,
                0.6564679741859436
            ]
        },
        {
            "mesh" : 7,
            "name" : "Text.006",
            "rotation" : [
                0.7010573744773865,
                0.09229595959186554,
                -0.09229595959186554,
                0.7010573744773865
            ],
            "scale" : [
                0.17734770476818085,
                0.17734770476818085,
                0.17734770476818085
            ],
            "translation" : [
                0.37230557203292847,
                -0.23066937923431396,
                0.9609618782997131
            ]
        },
        {
            "mesh" : 8,
            "name" : "Text.007",
            "rotation" : [
                0.7010573744773865,
                0.09229595959186554,
                -0.09229595959186554,
                0.7010573744773865
            ],
            "scale" : [
                0.150526225566864,
                0.150526225566864,
                0.150526225566864
            ],
            "translation" : [
                -0.6749354600906372,
                -0.1689683496952057,
                1.2294623851776123
            ]
        },
        {
            "mesh" : 9,
            "name" : "Text.008",
            "rotation" : [
                -0.09229613840579987,
                0.7010573744773865,
                -0.7010573744773865,
                -0.09229613095521927
            ],
            "scale" : [
                0.17258377373218536,
                0.17258377373218536,
                0.17258377373218536
            ],
            "translation" : [
                -0.434353232383728,
                -0.1881345510482788,
                -0.9321181178092957
            ]
        },
        {
            "mesh" : 10,
            "name" : "Text.009",
            "rotation" : [
                -0.09229613840579987,
                0.7010573744773865,
                -0.7010573744773865,
                -0.09229613095521927
            ],
            "scale" : [
                0.161381334066391,
                0.161381334066391,
                0.161381334066391
            ],
            "translation" : [
                0.6548851728439331,
                -0.1748884916305542,
                -1.2190992832183838
            ]
        },
        {
            "mesh" : 11,
            "name" : "Text.010",
            "rotation" : [
                -0.5609856247901917,
                0.430459201335907,
                -0.43045923113822937,
                -0.5609856247901917
            ],
            "scale" : [
                0.14464281499385834,
                0.14464281499385834,
                0.14464281499385834
            ],
            "translation" : [
                -1.2200583219528198,
                -0.34667518734931946,
                -0.6753372550010681
            ]
        },
        {
            "mesh" : 12,
            "name" : "Text.011",
            "rotation" : [
                -0.5609856247901917,
                0.430459201335907,
                -0.43045923113822937,
                -0.5609856247901917
            ],
            "scale" : [
                0.15324921905994415,
                0.15324921905994415,
                0.15324921905994415
            ],
            "translation" : [
                -0.9046329259872437,
                -0.36378246545791626,
                0.5423709154129028
            ]
        }
    ],
    "materials" : [
        {
            "doubleSided" : true,
            "name" : "Material",
            "pbrMetallicRoughness" : {
                "baseColorTexture" : {
                    "index" : 0,
                    "texCoord" : 0
                },
                "metallicFactor" : 0,
                "roughnessFactor" : 0.4000000059604645
            }
        }
    ],
    "meshes" : [
        {
            "name" : "Cube",
            "primitives" : [
                {
                    "attributes" : {
                        "POSITION" : 0,
                        "NORMAL" : 1,
                        "TEXCOORD_0" : 2
                    },
                    "indices" : 3,
                    "material" : 0
                }
            ]
        },
        {
            "name" : "Text",
            "primitives" : [
                {
                    "attributes" : {
                        "POSITION" : 4,
                        "NORMAL" : 5
                    },
                    "indices" : 6
                }
            ]
        },
        {
            "name" : "Text.001",
            "primitives" : [
                {
                    "attributes" : {
                        "POSITION" : 7,
                        "NORMAL" : 8
                    },
                    "indices" : 9
                }
            ]
        },
        {
            "name" : "Text.002",
            "primitives" : [
                {
                    "attributes" : {
                        "POSITION" : 10,
                        "NORMAL" : 11
                    },
                    "indices" : 12
                }
            ]
        },
        {
            "name" : "Text.003",
            "primitives" : [
                {
                    "attributes" : {
                        "POSITION" : 13,
                        "NORMAL" : 14
                    },
                    "indices" : 15
                }
            ]
        },
        {
            "name" : "Text.004",
            "primitives" : [
                {
                    "attributes" : {
                        "POSITION" : 16,
                        "NORMAL" : 17
                    },
                    "indices" : 6
                }
            ]
        },
        {
            "name" : "Text.005",
            "primitives" : [
                {
                    "attributes" : {
                        "POSITION" : 18,
                        "NORMAL" : 19
                    },
                    "indices" : 9
                }
            ]
        },
        {
            "name" : "Text.006",
            "primitives" : [
                {
                    "attributes" : {
                        "POSITION" : 20,
                        "NORMAL" : 21
                    },
                    "indices" : 15
                }
            ]
        },
        {
            "name" : "Text.007",
            "primitives" : [
                {
                    "attributes" : {
                        "POSITION" : 22,
                        "NORMAL" : 23
                    },
                    "indices" : 12
                }
            ]
        },
        {
            "name" : "Text.008",
            "primitives" : [
                {
                    "attributes" : {
                        "POSITION" : 24,
                        "NORMAL" : 25
                    },
                    "indices" : 12
                }
            ]
        },
        {
            "name" : "Text.009",
            "primitives" : [
                {
                    "attributes" : {
                        "POSITION" : 26,
                        "NORMAL" : 27
                    },
                    "indices" : 15
                }
            ]
        },
        {
            "name" : "Text.010",
            "primitives" : [
                {
                    "attributes" : {
                        "POSITION" : 28,
                        "NORMAL" : 29
                    },
                    "indices" : 6
                }
            ]
        },
        {
            "name" : "Text.011",
            "primitives" : [
                {
                    "attributes" : {
                        "POSITION" : 30,
                        "NORMAL" : 31
                    },
                    "indices" : 9
                }
            ]
        }
    ],
    "textures" : [
        {
            "source" : 0
        }
    ],
    "images" : [
        {
            "mimeType" : "image/png",
            "name" : "arrow",
            "uri" : "arrow.png"
        }
    ],
    "accessors" : [
        {
            "bufferView" : 0,
            "componentType" : 5126,
            "count" : 16,
            "max" : [
                1,
                1,
                1
            ],
            "min" : [
                -1,
                -1,
                -1
            ],
            "type" : "VEC3"
        },
        {
            "bufferView" : 1,
            "componentType" : 5126,
            "count" : 16,
            "type" : "VEC3"
        },
        {
            "bufferView" : 2,
            "componentType" : 5126,
            "count" : 16,
            "type" : "VEC2"
        },
        {
            "bufferView" : 3,
            "componentType" : 5123,
            "count" : 24,
            "type" : "SCALAR"
        },
        {
            "bufferView" : 4,
            "componentType" : 5126,
            "count" : 657,
            "max" : [
                4.790000915527344,
                0,
                0.009000000543892384
            ],
            "min" : [
                0,
                0,
                -0.6910000443458557
            ],
            "type" : "VEC3"
        },
        {
            "bufferView" : 5,
            "componentType" : 5126,
            "count" : 657,
            "type" : "VEC3"
        },
        {
            "bufferView" : 6,
            "componentType" : 5123,
            "count" : 1464,
            "type" : "SCALAR"
        },
        {
            "bufferView" : 7,
            "componentType" : 5126,
            "count" : 968,
            "max" : [
                4.151000022888184,
                0,
                0.009000000543892384
            ],
            "min" : [
                0.07300000637769699,
                0,
                -0.6910000443458557
            ],
            "type" : "VEC3"
        },
        {
            "bufferView" : 8,
            "componentType" : 5126,
            "count" : 968,
            "type" : "VEC3"
        },
        {
            "bufferView" : 9,
            "componentType" : 5123,
            "count" : 2157,
            "type" : "SCALAR"
        },
        {
            "bufferView" : 10,
            "componentType" : 5126,
            "count" : 1520,
            "max" : [
                4.553000450134277,
                0,
                1.2300000190734863
            ],
            "min" : [
                0,
                0,
                -0.6820000410079956
            ],
            "type" : "VEC3"
        },
        {
            "bufferView" : 11,
            "componentType" : 5126,
            "count" : 1520,
            "type" : "VEC3"
        },
        {
            "bufferView" : 12,
            "componentType" : 5123,
            "count" : 3462,
            "type" : "SCALAR"
        },
        {
            "bufferView" : 13,
            "componentType" : 5126,
            "count" : 1595,
            "max" : [
                4.357000350952148,
                0,
                1.0089999437332153
            ],
            "min" : [
                0.07500000298023224,
                0,
                -0.6820000410079956
            ],
            "type" : "VEC3"
        },
        {
            "bufferView" : 14,
            "componentType" : 5126,
            "count" : 1595,
            "type" : "VEC3"
        },
        {
            "bufferView" : 15,
            "componentType" : 5123,
            "count" : 3603,
            "type" : "SCALAR"
        },
        {
            "bufferView" : 16,
            "componentType" : 5126,
            "count" : 657,
            "max" : [
                4.790000915527344,
                0,
                0.009000000543892384
            ],
            "min" : [
                0,
                0,
                -0.6910000443458557
            ],
            "type" : "VEC3"
        },
        {
            "bufferView" : 17,
            "componentType" : 5126,
            "count" : 657,
            "type" : "VEC3"
        },
        {
            "bufferView" : 18,
            "componentType" : 5126,
            "count" : 968,
            "max" : [
                4.151000022888184,
                0,
                0.009000000543892384
            ],
            "min" : [
                0.07300000637769699,
                0,
                -0.6910000443458557
            ],
            "type" : "VEC3"
        },
        {
            "bufferView" : 19,
            "componentType" : 5126,
            "count" : 968,
            "type" : "VEC3"
        },
        {
            "bufferView" : 20,
            "componentType" : 5126,
            "count" : 1595,
            "max" : [
                4.357000350952148,
                0,
                1.0089999437332153
            ],
            "min" : [
                0.07500000298023224,
                0,
                -0.6820000410079956
            ],
            "type" : "VEC3"
        },
        {
            "bufferView" : 21,
            "componentType" : 5126,
            "count" : 1595,
            "type" : "VEC3"
        },
        {
            "bufferView" : 22,
            "componentType" : 5126,
            "count" : 1520,
            "max" : [
                4.553000450134277,
                0,
                1.2300000190734863
            ],
            "min" : [
                0,
                0,
                -0.6820000410079956
            ],
            "type" : "VEC3"
        },
        {
            "bufferView" : 23,
            "componentType" : 5126,
            "count" : 1520,
            "type" : "VEC3"
        },
        {
            "bufferView" : 24,
            "componentType" : 5126,
            "count" : 1520,
            "max" : [
                4.553000450134277,
                0,
                1.2300000190734863
            ],
            "min" : [
                0,
                0,
                -0.6820000410079956
            ],
            "type" : "VEC3"
        },
        {
            "bufferView" : 25,
            "componentType" : 5126,
            "count" : 1520,
            "type" : "VEC3"
        },
        {
            "bufferView" : 26,
            "componentType" : 5126,
            "count" : 1595,
            "max" : [
                4.357000350952148,
                0,
                1.0089999437332153
            ],
            "min" : [
                0.07500000298023224,
                0,
                -0.6820000410079956
            ],
            "type" : "VEC3"
        },
        {
            "bufferView" : 27,
            "componentType" : 5126,
            "count" : 1595,
            "type" : "VEC3"
        },
        {
            "bufferView" : 28,
            "componentType" : 5126,
            "count" : 657,
            "max" : [
                4.790000915527344,
                0,
                0.009000000543892384
            ],
            "min" : [
                0,
                0,
                -0.6910000443458557
            ],
            "type" : "VEC3"
        },
        {
            "bufferView" : 29,
            "componentType" : 5126,
            "count" : 657,
            "type" : "VEC3"
        },
        {
            "bufferView" : 30,
            "componentType" : 5126,
            "count" : 968,
            "max" : [
                4.151000022888184,
                0,
                0.009000000543892384
            ],
            "min" : [
                0.07300000637769699,
                0,
                -0.6910000443458557
            ],
            "type" : "VEC3"
        },
        {
            "bufferView" : 31,
            "componentType" : 5126,
            "count" : 968,
            "type" : "VEC3"
        }
    ],
    "bufferViews" : [
        {
            "buffer" : 0,
            "byteLength" : 192,
            "byteOffset" : 0
        },
        {
            "buffer" : 0,
            "byteLength" : 192,
            "byteOffset" : 192
        },
        {
            "buffer" : 0,
            "byteLength" : 128,
            "byteOffset" : 384
        },
        {
            "buffer" : 0,
            "byteLength" : 48,
            "byteOffset" : 512
        },
        {
            "buffer" : 0,
            "byteLength" : 7884,
            "byteOffset" : 560
        },
        {
            "buffer" : 0,
            "byteLength" : 7884,
            "byteOffset" : 8444
        },
        {
            "buffer" : 0,
            "byteLength" : 2928,
            "byteOffset" : 16328
        },
        {
            "buffer" : 0,
            "byteLength" : 11616,
            "byteOffset" : 19256
        },
        {
            "buffer" : 0,
            "byteLength" : 11616,
            "byteOffset" : 30872
        },
        {
            "buffer" : 0,
            "byteLength" : 4314,
            "byteOffset" : 42488
        },
        {
            "buffer" : 0,
            "byteLength" : 18240,
            "byteOffset" : 46804
        },
        {
            "buffer" : 0,
            "byteLength" : 18240,
            "byteOffset" : 65044
        },
        {
            "buffer" : 0,
            "byteLength" : 6924,
            "byteOffset" : 83284
        },
        {
            "buffer" : 0,
            "byteLength" : 19140,
            "byteOffset" : 90208
        },
        {
            "buffer" : 0,
            "byteLength" : 19140,
            "byteOffset" : 109348
        },
        {
            "buffer" : 0,
            "byteLength" : 7206,
            "byteOffset" : 128488
        },
        {
            "buffer" : 0,
            "byteLength" : 7884,
            "byteOffset" : 135696
        },
        {
            "buffer" : 0,
            "byteLength" : 7884,
            "byteOffset" : 143580
        },
        {
            "buffer" : 0,
            "byteLength" : 11616,
            "byteOffset" : 151464
        },
        {
            "buffer" : 0,
            "byteLength" : 11616,
            "byteOffset" : 163080
        },
        {
            "buffer" : 0,
            "byteLength" : 19140,
            "byteOffset" : 174696
        },
        {
            "buffer" : 0,
            "byteLength" : 19140,
            "byteOffset" : 193836
        },
        {
            "buffer" : 0,
            "byteLength" : 18240,
            "byteOffset" : 212976
        },
        {
            "buffer" : 0,
            "byteLength" : 18240,
            "byteOffset" : 231216
        },
        {
            "buffer" : 0,
            "byteLength" : 18240,
            "byteOffset" : 249456
        },
        {
            "buffer" : 0,
            "byteLength" : 18240,
            "byteOffset" : 267696
        },
        {
            "buffer" : 0,
            "byteLength" : 19140,
            "byteOffset" : 285936
        },
        {
            "buffer" : 0,
            "byteLength" : 19140,
            "byteOffset" : 305076
        },
        {
            "buffer" : 0,
            "byteLength" : 7884,
            "byteOffset" : 324216
        },
        {
            "buffer" : 0,
            "byteLength" : 7884,
            "byteOffset" : 332100
        },
        {
            "buffer" : 0,
            "byteLength" : 11616,
            "byteOffset" : 339984
        },
        {
            "buffer" : 0,
            "byteLength" : 11616,
            "byteOffset" : 351600
        }
    ],
    "buffers" : [
        {
            "byteLength" : 363216,
            "uri" : "direction2atdg.glb.bin"
        }
    ]
}
