{
    "asset" : {
        "generator" : "Khronos glTF Blender I/O v0.9.36",
        "version" : "2.0"
    },
    "scene" : 0,
    "scenes" : [
        {
            "name" : "Scene",
            "nodes" : [
                0,
                1,
                2,
                3,
                4,
                5,
                6,
                7,
                8,
                9,
                10,
                11,
                12
            ]
        }
    ],
    "nodes" : [
        {
            "mesh" : 0,
            "name" : "Cube",
            "rotation" : [
                0.9914448857307434,
                0,
                -0.13052619993686676,
                -2.797163176637696e-07
            ],
            "translation" : [
                0.002677333541214466,
                0,
                -0.0038422588258981705
            ]
        },
        {
            "mesh" : 1,
            "name" : "Text",
            "rotation" : [
                0.7010573744773865,
                0.09229595959186554,
                -0.09229595959186554,
                0.7010573744773865
            ],
            "scale" : [
                0.16045038402080536,
                0.16045038402080536,
                0.16045038402080536
            ],
            "translation" : [
                -0.08738362789154053,
                0.8066840767860413,
                1.0713989734649658
            ]
        },
        {
            "mesh" : 2,
            "name" : "Text.001",
            "rotation" : [
                -0.09229613840579987,
                0.7010573744773865,
                -0.7010573744773865,
                -0.09229613095521927
            ],
            "scale" : [
                0.1681760996580124,
                0.1681760996580124,
                0.1681760996580124
            ],
            "translation" : [
                0.08709824085235596,
                0.8288124203681946,
                -1.07246994972229
            ]
        },
        {
            "mesh" : 3,
            "name" : "Text.002",
            "rotation" : [
                -0.4304591417312622,
                -0.5609856843948364,
                0.5609856843948364,
                -0.4304591119289398
            ],
            "scale" : [
                0.15411706268787384,
                0.15411706268787384,
                0.15411706268787384
            ],
            "translation" : [
                1.055118203163147,
                0.8343885540962219,
                0.007112413644790649
            ]
        },
        {
            "mesh" : 4,
            "name" : "Text.003",
            "rotation" : [
                -0.5609856247901917,
                0.430459201335907,
                -0.43045923113822937,
                -0.5609856247901917
            ],
            "scale" : [
                0.15687139332294464,
                0.15687139332294464,
                0.15687139332294464
            ],
            "translation" : [
                -1.107147216796875,
                0.8253129124641418,
                -0.2360261082649231
            ]
        },
        {
            "mesh" : 5,
            "name" : "Text.004",
            "rotation" : [
                -0.4304591417312622,
                -0.5609856843948364,
                0.5609856843948364,
                -0.4304591119289398
            ],
            "scale" : [
                0.148467555642128,
                0.148467555642128,
                0.148467555642128
            ],
            "translation" : [
                0.9076699018478394,
                -0.0706755667924881,
                -0.4941238760948181
            ]
        },
        {
            "mesh" : 6,
            "name" : "Text.005",
            "rotation" : [
                -0.4304591417312622,
                -0.5609856843948364,
                0.5609856843948364,
                -0.4304591119289398
            ],
            "scale" : [
                0.16262097656726837,
                0.16262097656726837,
                0.16262097656726837
            ],
            "translation" : [
                1.2285494804382324,
                -0.17033438384532928,
                0.654366672039032
            ]
        },
        {
            "mesh" : 7,
            "name" : "Text.006",
            "rotation" : [
                0.7010573744773865,
                0.09229595959186554,
                -0.09229595959186554,
                0.7010573744773865
            ],
            "scale" : [
                0.1280764937400818,
                0.1280764937400818,
                0.1280764937400818
            ],
            "translation" : [
                0.31676197052001953,
                -0.2990860939025879,
                0.9752153754234314
            ]
        },
        {
            "mesh" : 8,
            "name" : "Text.007",
            "rotation" : [
                0.7010573744773865,
                0.09229595959186554,
                -0.09229595959186554,
                0.7010573744773865
            ],
            "scale" : [
                0.14949443936347961,
                0.14949443936347961,
                0.14949443936347961
            ],
            "translation" : [
                -0.6549416184425354,
                -0.23706449568271637,
                1.223475694656372
            ]
        },
        {
            "mesh" : 9,
            "name" : "Text.008",
            "rotation" : [
                -0.09229613840579987,
                0.7010573744773865,
                -0.7010573744773865,
                -0.09229613095521927
            ],
            "scale" : [
                0.17258377373218536,
                0.17258377373218536,
                0.17258377373218536
            ],
            "translation" : [
                -0.4770160913467407,
                -0.18393535912036896,
                -0.9213158488273621
            ]
        },
        {
            "mesh" : 10,
            "name" : "Text.009",
            "rotation" : [
                -0.09229613840579987,
                0.7010573744773865,
                -0.7010573744773865,
                -0.09229613095521927
            ],
            "scale" : [
                0.12932835519313812,
                0.12932835519313812,
                0.12932835519313812
            ],
            "translation" : [
                0.6700183749198914,
                -0.25629037618637085,
                -1.2237834930419922
            ]
        },
        {
            "mesh" : 11,
            "name" : "Text.010",
            "rotation" : [
                -0.5609856247901917,
                0.430459201335907,
                -0.43045923113822937,
                -0.5609856247901917
            ],
            "scale" : [
                0.12863051891326904,
                0.12863051891326904,
                0.12863051891326904
            ],
            "translation" : [
                -1.2145648002624512,
                -0.07952143251895905,
                -0.6774385571479797
            ]
        },
        {
            "mesh" : 12,
            "name" : "Text.011",
            "rotation" : [
                -0.5609856247901917,
                0.430459201335907,
                -0.43045923113822937,
                -0.5609856247901917
            ],
            "scale" : [
                0.15324921905994415,
                0.15324921905994415,
                0.15324921905994415
            ],
            "translation" : [
                -0.8991392850875854,
                -0.19051779806613922,
                0.5402696132659912
            ]
        }
    ],
    "materials" : [
        {
            "doubleSided" : true,
            "name" : "Material",
            "pbrMetallicRoughness" : {
                "baseColorTexture" : {
                    "index" : 0,
                    "texCoord" : 0
                },
                "metallicFactor" : 0,
                "roughnessFactor" : 0.4000000059604645
            }
        }
    ],
    "meshes" : [
        {
            "name" : "Cube",
            "primitives" : [
                {
                    "attributes" : {
                        "POSITION" : 0,
                        "NORMAL" : 1,
                        "TEXCOORD_0" : 2
                    },
                    "indices" : 3,
                    "material" : 0
                }
            ]
        },
        {
            "name" : "Text",
            "primitives" : [
                {
                    "attributes" : {
                        "POSITION" : 4,
                        "NORMAL" : 5
                    },
                    "indices" : 6
                }
            ]
        },
        {
            "name" : "Text.001",
            "primitives" : [
                {
                    "attributes" : {
                        "POSITION" : 7,
                        "NORMAL" : 8
                    },
                    "indices" : 9
                }
            ]
        },
        {
            "name" : "Text.002",
            "primitives" : [
                {
                    "attributes" : {
                        "POSITION" : 10,
                        "NORMAL" : 11
                    },
                    "indices" : 12
                }
            ]
        },
        {
            "name" : "Text.003",
            "primitives" : [
                {
                    "attributes" : {
                        "POSITION" : 13,
                        "NORMAL" : 14
                    },
                    "indices" : 15
                }
            ]
        },
        {
            "name" : "Text.004",
            "primitives" : [
                {
                    "attributes" : {
                        "POSITION" : 16,
                        "NORMAL" : 17
                    },
                    "indices" : 6
                }
            ]
        },
        {
            "name" : "Text.005",
            "primitives" : [
                {
                    "attributes" : {
                        "POSITION" : 18,
                        "NORMAL" : 19
                    },
                    "indices" : 9
                }
            ]
        },
        {
            "name" : "Text.006",
            "primitives" : [
                {
                    "attributes" : {
                        "POSITION" : 20,
                        "NORMAL" : 21
                    },
                    "indices" : 22
                }
            ]
        },
        {
            "name" : "Text.007",
            "primitives" : [
                {
                    "attributes" : {
                        "POSITION" : 23,
                        "NORMAL" : 24
                    },
                    "indices" : 12
                }
            ]
        },
        {
            "name" : "Text.008",
            "primitives" : [
                {
                    "attributes" : {
                        "POSITION" : 25,
                        "NORMAL" : 26
                    },
                    "indices" : 12
                }
            ]
        },
        {
            "name" : "Text.009",
            "primitives" : [
                {
                    "attributes" : {
                        "POSITION" : 27,
                        "NORMAL" : 28
                    },
                    "indices" : 22
                }
            ]
        },
        {
            "name" : "Text.010",
            "primitives" : [
                {
                    "attributes" : {
                        "POSITION" : 29,
                        "NORMAL" : 30
                    },
                    "indices" : 6
                }
            ]
        },
        {
            "name" : "Text.011",
            "primitives" : [
                {
                    "attributes" : {
                        "POSITION" : 31,
                        "NORMAL" : 32
                    },
                    "indices" : 9
                }
            ]
        }
    ],
    "textures" : [
        {
            "source" : 0
        }
    ],
    "images" : [
        {
            "mimeType" : "image/png",
            "name" : "arrow",
            "uri" : "arrow.png"
        }
    ],
    "accessors" : [
        {
            "bufferView" : 0,
            "componentType" : 5126,
            "count" : 16,
            "max" : [
                1,
                1,
                1
            ],
            "min" : [
                -1,
                -1,
                -1
            ],
            "type" : "VEC3"
        },
        {
            "bufferView" : 1,
            "componentType" : 5126,
            "count" : 16,
            "type" : "VEC3"
        },
        {
            "bufferView" : 2,
            "componentType" : 5126,
            "count" : 16,
            "type" : "VEC2"
        },
        {
            "bufferView" : 3,
            "componentType" : 5123,
            "count" : 24,
            "type" : "SCALAR"
        },
        {
            "bufferView" : 4,
            "componentType" : 5126,
            "count" : 2269,
            "max" : [
                5.113000869750977,
                0,
                2.009000062942505
            ],
            "min" : [
                0.04000000283122063,
                0,
                -0.6940000057220459
            ],
            "type" : "VEC3"
        },
        {
            "bufferView" : 5,
            "componentType" : 5126,
            "count" : 2269,
            "type" : "VEC3"
        },
        {
            "bufferView" : 6,
            "componentType" : 5123,
            "count" : 4992,
            "type" : "SCALAR"
        },
        {
            "bufferView" : 7,
            "componentType" : 5126,
            "count" : 1589,
            "max" : [
                4.357000350952148,
                0,
                1.0089999437332153
            ],
            "min" : [
                0.07500000298023224,
                0,
                -0.6820000410079956
            ],
            "type" : "VEC3"
        },
        {
            "bufferView" : 8,
            "componentType" : 5126,
            "count" : 1589,
            "type" : "VEC3"
        },
        {
            "bufferView" : 9,
            "componentType" : 5123,
            "count" : 3603,
            "type" : "SCALAR"
        },
        {
            "bufferView" : 10,
            "componentType" : 5126,
            "count" : 1710,
            "max" : [
                4.432000160217285,
                0,
                1.0089999437332153
            ],
            "min" : [
                0,
                0,
                -0.6860000491142273
            ],
            "type" : "VEC3"
        },
        {
            "bufferView" : 11,
            "componentType" : 5126,
            "count" : 1710,
            "type" : "VEC3"
        },
        {
            "bufferView" : 12,
            "componentType" : 5123,
            "count" : 3762,
            "type" : "SCALAR"
        },
        {
            "bufferView" : 13,
            "componentType" : 5126,
            "count" : 2040,
            "max" : [
                7.047000885009766,
                0,
                1.0089999437332153
            ],
            "min" : [
                0,
                0,
                -0.6820000410079956
            ],
            "type" : "VEC3"
        },
        {
            "bufferView" : 14,
            "componentType" : 5126,
            "count" : 2040,
            "type" : "VEC3"
        },
        {
            "bufferView" : 15,
            "componentType" : 5123,
            "count" : 4590,
            "type" : "SCALAR"
        },
        {
            "bufferView" : 16,
            "componentType" : 5126,
            "count" : 2269,
            "max" : [
                5.113000869750977,
                0,
                2.009000062942505
            ],
            "min" : [
                0.04000000283122063,
                0,
                -0.6940000057220459
            ],
            "type" : "VEC3"
        },
        {
            "bufferView" : 17,
            "componentType" : 5126,
            "count" : 2269,
            "type" : "VEC3"
        },
        {
            "bufferView" : 18,
            "componentType" : 5126,
            "count" : 1589,
            "max" : [
                4.357000350952148,
                0,
                1.0089999437332153
            ],
            "min" : [
                0.07500000298023224,
                0,
                -0.6820000410079956
            ],
            "type" : "VEC3"
        },
        {
            "bufferView" : 19,
            "componentType" : 5126,
            "count" : 1589,
            "type" : "VEC3"
        },
        {
            "bufferView" : 20,
            "componentType" : 5126,
            "count" : 2048,
            "max" : [
                7.047000885009766,
                0,
                1.0089999437332153
            ],
            "min" : [
                0,
                0,
                -0.6820000410079956
            ],
            "type" : "VEC3"
        },
        {
            "bufferView" : 21,
            "componentType" : 5126,
            "count" : 2048,
            "type" : "VEC3"
        },
        {
            "bufferView" : 22,
            "componentType" : 5123,
            "count" : 4590,
            "type" : "SCALAR"
        },
        {
            "bufferView" : 23,
            "componentType" : 5126,
            "count" : 1710,
            "max" : [
                4.432000160217285,
                0,
                1.0089999437332153
            ],
            "min" : [
                0,
                0,
                -0.6860000491142273
            ],
            "type" : "VEC3"
        },
        {
            "bufferView" : 24,
            "componentType" : 5126,
            "count" : 1710,
            "type" : "VEC3"
        },
        {
            "bufferView" : 25,
            "componentType" : 5126,
            "count" : 1710,
            "max" : [
                4.432000160217285,
                0,
                1.0089999437332153
            ],
            "min" : [
                0,
                0,
                -0.6860000491142273
            ],
            "type" : "VEC3"
        },
        {
            "bufferView" : 26,
            "componentType" : 5126,
            "count" : 1710,
            "type" : "VEC3"
        },
        {
            "bufferView" : 27,
            "componentType" : 5126,
            "count" : 2048,
            "max" : [
                7.047000885009766,
                0,
                1.0089999437332153
            ],
            "min" : [
                0,
                0,
                -0.6820000410079956
            ],
            "type" : "VEC3"
        },
        {
            "bufferView" : 28,
            "componentType" : 5126,
            "count" : 2048,
            "type" : "VEC3"
        },
        {
            "bufferView" : 29,
            "componentType" : 5126,
            "count" : 2269,
            "max" : [
                5.113000869750977,
                0,
                2.009000062942505
            ],
            "min" : [
                0.04000000283122063,
                0,
                -0.6940000057220459
            ],
            "type" : "VEC3"
        },
        {
            "bufferView" : 30,
            "componentType" : 5126,
            "count" : 2269,
            "type" : "VEC3"
        },
        {
            "bufferView" : 31,
            "componentType" : 5126,
            "count" : 1589,
            "max" : [
                4.357000350952148,
                0,
                1.0089999437332153
            ],
            "min" : [
                0.07500000298023224,
                0,
                -0.6820000410079956
            ],
            "type" : "VEC3"
        },
        {
            "bufferView" : 32,
            "componentType" : 5126,
            "count" : 1589,
            "type" : "VEC3"
        }
    ],
    "bufferViews" : [
        {
            "buffer" : 0,
            "byteLength" : 192,
            "byteOffset" : 0
        },
        {
            "buffer" : 0,
            "byteLength" : 192,
            "byteOffset" : 192
        },
        {
            "buffer" : 0,
            "byteLength" : 128,
            "byteOffset" : 384
        },
        {
            "buffer" : 0,
            "byteLength" : 48,
            "byteOffset" : 512
        },
        {
            "buffer" : 0,
            "byteLength" : 27228,
            "byteOffset" : 560
        },
        {
            "buffer" : 0,
            "byteLength" : 27228,
            "byteOffset" : 27788
        },
        {
            "buffer" : 0,
            "byteLength" : 9984,
            "byteOffset" : 55016
        },
        {
            "buffer" : 0,
            "byteLength" : 19068,
            "byteOffset" : 65000
        },
        {
            "buffer" : 0,
            "byteLength" : 19068,
            "byteOffset" : 84068
        },
        {
            "buffer" : 0,
            "byteLength" : 7206,
            "byteOffset" : 103136
        },
        {
            "buffer" : 0,
            "byteLength" : 20520,
            "byteOffset" : 110344
        },
        {
            "buffer" : 0,
            "byteLength" : 20520,
            "byteOffset" : 130864
        },
        {
            "buffer" : 0,
            "byteLength" : 7524,
            "byteOffset" : 151384
        },
        {
            "buffer" : 0,
            "byteLength" : 24480,
            "byteOffset" : 158908
        },
        {
            "buffer" : 0,
            "byteLength" : 24480,
            "byteOffset" : 183388
        },
        {
            "buffer" : 0,
            "byteLength" : 9180,
            "byteOffset" : 207868
        },
        {
            "buffer" : 0,
            "byteLength" : 27228,
            "byteOffset" : 217048
        },
        {
            "buffer" : 0,
            "byteLength" : 27228,
            "byteOffset" : 244276
        },
        {
            "buffer" : 0,
            "byteLength" : 19068,
            "byteOffset" : 271504
        },
        {
            "buffer" : 0,
            "byteLength" : 19068,
            "byteOffset" : 290572
        },
        {
            "buffer" : 0,
            "byteLength" : 24576,
            "byteOffset" : 309640
        },
        {
            "buffer" : 0,
            "byteLength" : 24576,
            "byteOffset" : 334216
        },
        {
            "buffer" : 0,
            "byteLength" : 9180,
            "byteOffset" : 358792
        },
        {
            "buffer" : 0,
            "byteLength" : 20520,
            "byteOffset" : 367972
        },
        {
            "buffer" : 0,
            "byteLength" : 20520,
            "byteOffset" : 388492
        },
        {
            "buffer" : 0,
            "byteLength" : 20520,
            "byteOffset" : 409012
        },
        {
            "buffer" : 0,
            "byteLength" : 20520,
            "byteOffset" : 429532
        },
        {
            "buffer" : 0,
            "byteLength" : 24576,
            "byteOffset" : 450052
        },
        {
            "buffer" : 0,
            "byteLength" : 24576,
            "byteOffset" : 474628
        },
        {
            "buffer" : 0,
            "byteLength" : 27228,
            "byteOffset" : 499204
        },
        {
            "buffer" : 0,
            "byteLength" : 27228,
            "byteOffset" : 526432
        },
        {
            "buffer" : 0,
            "byteLength" : 19068,
            "byteOffset" : 553660
        },
        {
            "buffer" : 0,
            "byteLength" : 19068,
            "byteOffset" : 572728
        }
    ],
    "buffers" : [
        {
            "byteLength" : 591796,
            "uri" : "direction2atviswarayya.bin"
        }
    ]
}
