{
    "asset" : {
        "generator" : "Khronos glTF Blender I/O v0.9.36",
        "version" : "2.0"
    },
    "scene" : 0,
    "scenes" : [
        {
            "name" : "Scene",
            "nodes" : [
                0,
                1,
                2,
                3,
                4,
                5,
                6,
                7,
                8,
                9,
                10,
                11,
                12
            ]
        }
    ],
    "nodes" : [
        {
            "mesh" : 0,
            "name" : "Cube",
            "rotation" : [
                1,
                0,
                0,
                -1.6292068494294654e-07
            ]
        },
        {
            "mesh" : 1,
            "name" : "Text",
            "rotation" : [
                0.7071067690849304,
                0,
                0,
                0.7071067690849304
            ],
            "scale" : [
                0.19063621759414673,
                0.19063621759414673,
                0.19063621759414673
            ],
            "translation" : [
                -0.40031254291534424,
                0.7316248416900635,
                1.015293836593628
            ]
        },
        {
            "mesh" : 2,
            "name" : "Text.001",
            "rotation" : [
                0,
                0.7071067690849304,
                -0.7071067690849304,
                -1.152023116901546e-07
            ],
            "scale" : [
                0.19203568994998932,
                0.19203568994998932,
                0.19203568994998932
            ],
            "translation" : [
                0.3431689143180847,
                0.7640002369880676,
                -1.0103652477264404
            ]
        },
        {
            "mesh" : 3,
            "name" : "Text.002",
            "rotation" : [
                -0.4999998211860657,
                -0.5000001788139343,
                0.5000002384185791,
                -0.4999997913837433
            ],
            "scale" : [
                0.1712186336517334,
                0.1712186336517334,
                0.1712186336517334
            ],
            "translation" : [
                1.013744592666626,
                0.8243556618690491,
                0.3582203984260559
            ]
        },
        {
            "mesh" : 4,
            "name" : "Text.003",
            "rotation" : [
                -0.5000001192092896,
                0.49999988079071045,
                -0.49999988079071045,
                -0.5000001192092896
            ],
            "scale" : [
                0.1673450917005539,
                0.1673450917005539,
                0.1673450917005539
            ],
            "translation" : [
                -1.0119144916534424,
                0.8054208159446716,
                -0.33746087551116943
            ]
        },
        {
            "mesh" : 5,
            "name" : "Text.004",
            "rotation" : [
                -0.4999998211860657,
                -0.5000001788139343,
                0.5000002384185791,
                -0.4999997913837433
            ],
            "scale" : [
                0.1766955703496933,
                0.1766955703496933,
                0.1766955703496933
            ],
            "translation" : [
                1.0010498762130737,
                -0.18335017561912537,
                -0.4203541874885559
            ]
        },
        {
            "mesh" : 6,
            "name" : "Text.005",
            "rotation" : [
                -0.4999998211860657,
                -0.5000001788139343,
                0.5000002384185791,
                -0.4999997913837433
            ],
            "scale" : [
                0.16143323481082916,
                0.16143323481082916,
                0.16143323481082916
            ],
            "translation" : [
                1.013744592666626,
                -0.26843422651290894,
                0.9480436444282532
            ]
        },
        {
            "mesh" : 7,
            "name" : "Text.006",
            "rotation" : [
                0.7071067690849304,
                0,
                0,
                0.7071067690849304
            ],
            "scale" : [
                0.13830959796905518,
                0.13830959796905518,
                0.13830959796905518
            ],
            "translation" : [
                0.36683833599090576,
                -0.2559265196323395,
                1.0153322219848633
            ]
        },
        {
            "mesh" : 8,
            "name" : "Text.007",
            "rotation" : [
                0.7071067690849304,
                0,
                0,
                0.7071067690849304
            ],
            "scale" : [
                0.16346265375614166,
                0.16346265375614166,
                0.16346265375614166
            ],
            "translation" : [
                -0.9528643488883972,
                -0.3807610273361206,
                1.015293836593628
            ]
        },
        {
            "mesh" : 9,
            "name" : "Text.008",
            "rotation" : [
                0,
                0.7071067690849304,
                -0.7071067690849304,
                -1.152023116901546e-07
            ],
            "scale" : [
                0.1754872351884842,
                0.1754872351884842,
                0.1754872351884842
            ],
            "translation" : [
                -0.15110576152801514,
                -0.355050265789032,
                -1.0103652477264404
            ]
        },
        {
            "mesh" : 10,
            "name" : "Text.009",
            "rotation" : [
                0,
                0.7071067690849304,
                -0.7071067690849304,
                -1.152023116901546e-07
            ],
            "scale" : [
                0.1628498136997223,
                0.1628498136997223,
                0.1628498136997223
            ],
            "translation" : [
                0.960345983505249,
                -0.18050441145896912,
                -1.0056521892547607
            ]
        },
        {
            "mesh" : 11,
            "name" : "Text.010",
            "rotation" : [
                -0.5000001192092896,
                0.49999988079071045,
                -0.49999988079071045,
                -0.5000001192092896
            ],
            "scale" : [
                0.17130349576473236,
                0.17130349576473236,
                0.17130349576473236
            ],
            "translation" : [
                -1.0014259815216064,
                -0.10879315435886383,
                -0.8859690427780151
            ]
        },
        {
            "mesh" : 12,
            "name" : "Text.011",
            "rotation" : [
                -0.5000001192092896,
                0.49999988079071045,
                -0.49999988079071045,
                -0.5000001192092896
            ],
            "scale" : [
                0.18999464809894562,
                0.18999464809894562,
                0.18999464809894562
            ],
            "translation" : [
                -1.0119144916534424,
                -0.3488634526729584,
                0.1678391844034195
            ]
        }
    ],
    "materials" : [
        {
            "doubleSided" : true,
            "name" : "Material",
            "pbrMetallicRoughness" : {
                "baseColorTexture" : {
                    "index" : 0,
                    "texCoord" : 0
                },
                "metallicFactor" : 0,
                "roughnessFactor" : 0.4000000059604645
            }
        }
    ],
    "meshes" : [
        {
            "name" : "Cube",
            "primitives" : [
                {
                    "attributes" : {
                        "POSITION" : 0,
                        "NORMAL" : 1,
                        "TEXCOORD_0" : 2
                    },
                    "indices" : 3,
                    "material" : 0
                }
            ]
        },
        {
            "name" : "Text",
            "primitives" : [
                {
                    "attributes" : {
                        "POSITION" : 4,
                        "NORMAL" : 5
                    },
                    "indices" : 6
                }
            ]
        },
        {
            "name" : "Text.001",
            "primitives" : [
                {
                    "attributes" : {
                        "POSITION" : 7,
                        "NORMAL" : 8
                    },
                    "indices" : 9
                }
            ]
        },
        {
            "name" : "Text.002",
            "primitives" : [
                {
                    "attributes" : {
                        "POSITION" : 10,
                        "NORMAL" : 11
                    },
                    "indices" : 12
                }
            ]
        },
        {
            "name" : "Text.003",
            "primitives" : [
                {
                    "attributes" : {
                        "POSITION" : 13,
                        "NORMAL" : 14
                    },
                    "indices" : 15
                }
            ]
        },
        {
            "name" : "Text.004",
            "primitives" : [
                {
                    "attributes" : {
                        "POSITION" : 16,
                        "NORMAL" : 17
                    },
                    "indices" : 18
                }
            ]
        },
        {
            "name" : "Text.005",
            "primitives" : [
                {
                    "attributes" : {
                        "POSITION" : 19,
                        "NORMAL" : 20
                    },
                    "indices" : 9
                }
            ]
        },
        {
            "name" : "Text.006",
            "primitives" : [
                {
                    "attributes" : {
                        "POSITION" : 21,
                        "NORMAL" : 22
                    },
                    "indices" : 15
                }
            ]
        },
        {
            "name" : "Text.007",
            "primitives" : [
                {
                    "attributes" : {
                        "POSITION" : 23,
                        "NORMAL" : 24
                    },
                    "indices" : 12
                }
            ]
        },
        {
            "name" : "Text.008",
            "primitives" : [
                {
                    "attributes" : {
                        "POSITION" : 25,
                        "NORMAL" : 26
                    },
                    "indices" : 12
                }
            ]
        },
        {
            "name" : "Text.009",
            "primitives" : [
                {
                    "attributes" : {
                        "POSITION" : 27,
                        "NORMAL" : 28
                    },
                    "indices" : 15
                }
            ]
        },
        {
            "name" : "Text.010",
            "primitives" : [
                {
                    "attributes" : {
                        "POSITION" : 29,
                        "NORMAL" : 30
                    },
                    "indices" : 31
                }
            ]
        },
        {
            "name" : "Text.011",
            "primitives" : [
                {
                    "attributes" : {
                        "POSITION" : 32,
                        "NORMAL" : 33
                    },
                    "indices" : 9
                }
            ]
        }
    ],
    "textures" : [
        {
            "source" : 0
        }
    ],
    "images" : [
        {
            "mimeType" : "image/png",
            "name" : "arrow",
            "uri" : "arrow.png"
        }
    ],
    "accessors" : [
        {
            "bufferView" : 0,
            "componentType" : 5126,
            "count" : 16,
            "max" : [
                1,
                1,
                1
            ],
            "min" : [
                -1,
                -1,
                -1
            ],
            "type" : "VEC3"
        },
        {
            "bufferView" : 1,
            "componentType" : 5126,
            "count" : 16,
            "type" : "VEC3"
        },
        {
            "bufferView" : 2,
            "componentType" : 5126,
            "count" : 16,
            "type" : "VEC2"
        },
        {
            "bufferView" : 3,
            "componentType" : 5123,
            "count" : 24,
            "type" : "SCALAR"
        },
        {
            "bufferView" : 4,
            "componentType" : 5126,
            "count" : 968,
            "max" : [
                4.151000022888184,
                0,
                0.009000000543892384
            ],
            "min" : [
                0.07300000637769699,
                0,
                -0.6910000443458557
            ],
            "type" : "VEC3"
        },
        {
            "bufferView" : 5,
            "componentType" : 5126,
            "count" : 968,
            "type" : "VEC3"
        },
        {
            "bufferView" : 6,
            "componentType" : 5123,
            "count" : 2157,
            "type" : "SCALAR"
        },
        {
            "bufferView" : 7,
            "componentType" : 5126,
            "count" : 1181,
            "max" : [
                3.9840002059936523,
                0,
                0.009000000543892384
            ],
            "min" : [
                0.04000000283122063,
                0,
                -0.6910000443458557
            ],
            "type" : "VEC3"
        },
        {
            "bufferView" : 8,
            "componentType" : 5126,
            "count" : 1181,
            "type" : "VEC3"
        },
        {
            "bufferView" : 9,
            "componentType" : 5123,
            "count" : 2625,
            "type" : "SCALAR"
        },
        {
            "bufferView" : 10,
            "componentType" : 5126,
            "count" : 657,
            "max" : [
                4.790000915527344,
                0,
                0.009000000543892384
            ],
            "min" : [
                0,
                0,
                -0.6910000443458557
            ],
            "type" : "VEC3"
        },
        {
            "bufferView" : 11,
            "componentType" : 5126,
            "count" : 657,
            "type" : "VEC3"
        },
        {
            "bufferView" : 12,
            "componentType" : 5123,
            "count" : 1464,
            "type" : "SCALAR"
        },
        {
            "bufferView" : 13,
            "componentType" : 5126,
            "count" : 2040,
            "max" : [
                4.503999710083008,
                0,
                1.0089999437332153
            ],
            "min" : [
                0.04000000283122063,
                0,
                -0.6910000443458557
            ],
            "type" : "VEC3"
        },
        {
            "bufferView" : 14,
            "componentType" : 5126,
            "count" : 2040,
            "type" : "VEC3"
        },
        {
            "bufferView" : 15,
            "componentType" : 5123,
            "count" : 4497,
            "type" : "SCALAR"
        },
        {
            "bufferView" : 16,
            "componentType" : 5126,
            "count" : 995,
            "max" : [
                2.502000093460083,
                0,
                1.0089999437332153
            ],
            "min" : [
                0.07300000637769699,
                0,
                -0.6820000410079956
            ],
            "type" : "VEC3"
        },
        {
            "bufferView" : 17,
            "componentType" : 5126,
            "count" : 995,
            "type" : "VEC3"
        },
        {
            "bufferView" : 18,
            "componentType" : 5123,
            "count" : 2157,
            "type" : "SCALAR"
        },
        {
            "bufferView" : 19,
            "componentType" : 5126,
            "count" : 1181,
            "max" : [
                3.9840002059936523,
                0,
                0.009000000543892384
            ],
            "min" : [
                0.04000000283122063,
                0,
                -0.6910000443458557
            ],
            "type" : "VEC3"
        },
        {
            "bufferView" : 20,
            "componentType" : 5126,
            "count" : 1181,
            "type" : "VEC3"
        },
        {
            "bufferView" : 21,
            "componentType" : 5126,
            "count" : 2040,
            "max" : [
                4.503999710083008,
                0,
                1.0089999437332153
            ],
            "min" : [
                0.04000000283122063,
                0,
                -0.6910000443458557
            ],
            "type" : "VEC3"
        },
        {
            "bufferView" : 22,
            "componentType" : 5126,
            "count" : 2040,
            "type" : "VEC3"
        },
        {
            "bufferView" : 23,
            "componentType" : 5126,
            "count" : 657,
            "max" : [
                4.790000915527344,
                0,
                0.009000000543892384
            ],
            "min" : [
                0,
                0,
                -0.6910000443458557
            ],
            "type" : "VEC3"
        },
        {
            "bufferView" : 24,
            "componentType" : 5126,
            "count" : 657,
            "type" : "VEC3"
        },
        {
            "bufferView" : 25,
            "componentType" : 5126,
            "count" : 657,
            "max" : [
                4.790000915527344,
                0,
                0.009000000543892384
            ],
            "min" : [
                0,
                0,
                -0.6910000443458557
            ],
            "type" : "VEC3"
        },
        {
            "bufferView" : 26,
            "componentType" : 5126,
            "count" : 657,
            "type" : "VEC3"
        },
        {
            "bufferView" : 27,
            "componentType" : 5126,
            "count" : 2040,
            "max" : [
                4.503999710083008,
                0,
                1.0089999437332153
            ],
            "min" : [
                0.04000000283122063,
                0,
                -0.6910000443458557
            ],
            "type" : "VEC3"
        },
        {
            "bufferView" : 28,
            "componentType" : 5126,
            "count" : 2040,
            "type" : "VEC3"
        },
        {
            "bufferView" : 29,
            "componentType" : 5126,
            "count" : 1310,
            "max" : [
                2.502000093460083,
                0,
                2.009000062942505
            ],
            "min" : [
                0.07300000637769699,
                0,
                -0.6820000410079956
            ],
            "type" : "VEC3"
        },
        {
            "bufferView" : 30,
            "componentType" : 5126,
            "count" : 1310,
            "type" : "VEC3"
        },
        {
            "bufferView" : 31,
            "componentType" : 5123,
            "count" : 2853,
            "type" : "SCALAR"
        },
        {
            "bufferView" : 32,
            "componentType" : 5126,
            "count" : 1181,
            "max" : [
                3.9840002059936523,
                0,
                0.009000000543892384
            ],
            "min" : [
                0.04000000283122063,
                0,
                -0.6910000443458557
            ],
            "type" : "VEC3"
        },
        {
            "bufferView" : 33,
            "componentType" : 5126,
            "count" : 1181,
            "type" : "VEC3"
        }
    ],
    "bufferViews" : [
        {
            "buffer" : 0,
            "byteLength" : 192,
            "byteOffset" : 0
        },
        {
            "buffer" : 0,
            "byteLength" : 192,
            "byteOffset" : 192
        },
        {
            "buffer" : 0,
            "byteLength" : 128,
            "byteOffset" : 384
        },
        {
            "buffer" : 0,
            "byteLength" : 48,
            "byteOffset" : 512
        },
        {
            "buffer" : 0,
            "byteLength" : 11616,
            "byteOffset" : 560
        },
        {
            "buffer" : 0,
            "byteLength" : 11616,
            "byteOffset" : 12176
        },
        {
            "buffer" : 0,
            "byteLength" : 4314,
            "byteOffset" : 23792
        },
        {
            "buffer" : 0,
            "byteLength" : 14172,
            "byteOffset" : 28108
        },
        {
            "buffer" : 0,
            "byteLength" : 14172,
            "byteOffset" : 42280
        },
        {
            "buffer" : 0,
            "byteLength" : 5250,
            "byteOffset" : 56452
        },
        {
            "buffer" : 0,
            "byteLength" : 7884,
            "byteOffset" : 61704
        },
        {
            "buffer" : 0,
            "byteLength" : 7884,
            "byteOffset" : 69588
        },
        {
            "buffer" : 0,
            "byteLength" : 2928,
            "byteOffset" : 77472
        },
        {
            "buffer" : 0,
            "byteLength" : 24480,
            "byteOffset" : 80400
        },
        {
            "buffer" : 0,
            "byteLength" : 24480,
            "byteOffset" : 104880
        },
        {
            "buffer" : 0,
            "byteLength" : 8994,
            "byteOffset" : 129360
        },
        {
            "buffer" : 0,
            "byteLength" : 11940,
            "byteOffset" : 138356
        },
        {
            "buffer" : 0,
            "byteLength" : 11940,
            "byteOffset" : 150296
        },
        {
            "buffer" : 0,
            "byteLength" : 4314,
            "byteOffset" : 162236
        },
        {
            "buffer" : 0,
            "byteLength" : 14172,
            "byteOffset" : 166552
        },
        {
            "buffer" : 0,
            "byteLength" : 14172,
            "byteOffset" : 180724
        },
        {
            "buffer" : 0,
            "byteLength" : 24480,
            "byteOffset" : 194896
        },
        {
            "buffer" : 0,
            "byteLength" : 24480,
            "byteOffset" : 219376
        },
        {
            "buffer" : 0,
            "byteLength" : 7884,
            "byteOffset" : 243856
        },
        {
            "buffer" : 0,
            "byteLength" : 7884,
            "byteOffset" : 251740
        },
        {
            "buffer" : 0,
            "byteLength" : 7884,
            "byteOffset" : 259624
        },
        {
            "buffer" : 0,
            "byteLength" : 7884,
            "byteOffset" : 267508
        },
        {
            "buffer" : 0,
            "byteLength" : 24480,
            "byteOffset" : 275392
        },
        {
            "buffer" : 0,
            "byteLength" : 24480,
            "byteOffset" : 299872
        },
        {
            "buffer" : 0,
            "byteLength" : 15720,
            "byteOffset" : 324352
        },
        {
            "buffer" : 0,
            "byteLength" : 15720,
            "byteOffset" : 340072
        },
        {
            "buffer" : 0,
            "byteLength" : 5706,
            "byteOffset" : 355792
        },
        {
            "buffer" : 0,
            "byteLength" : 14172,
            "byteOffset" : 361500
        },
        {
            "buffer" : 0,
            "byteLength" : 14172,
            "byteOffset" : 375672
        }
    ],
    "buffers" : [
        {
            "byteLength" : 389844,
            "uri" : "direction2atsb.bin"
        }
    ]
}
