{
    "asset" : {
        "generator" : "Khronos glTF Blender I/O v0.9.36",
        "version" : "2.0"
    },
    "scene" : 0,
    "scenes" : [
        {
            "name" : "Scene",
            "nodes" : [
                0,
                1
            ]
        }
    ],
    "nodes" : [
        {
            "name" : "Camera",
            "rotation" : [
                0.483536034822464,
                0.33687159419059753,
                -0.20870360732078552,
                0.7804827094078064
            ],
            "translation" : [
                7.358891487121582,
                4.958309173583984,
                6.925790786743164
            ]
        },
        {
            "mesh" : 0,
            "name" : "Cylinder",
            "rotation" : [
                0,
                0,
                -1,
                -1.6292068494294654e-07
            ]
        }
    ],
    "materials" : [
        {
            "doubleSided" : true,
            "name" : "Material.001",
            "pbrMetallicRoughness" : {
                "baseColorFactor" : [
                    1,
                    0.3663972318172455,
                    0,
                    1
                ],
                "metallicFactor" : 1,
                "roughnessFactor" : 0.1376146674156189
            }
        },
        {
            "doubleSided" : true,
            "name" : "Material.002",
            "pbrMetallicRoughness" : {
                "baseColorFactor" : [
                    0,
                    0,
                    0,
                    1
                ],
                "metallicFactor" : 1,
                "roughnessFactor" : 1
            }
        },
        {
            "doubleSided" : true,
            "name" : "Material.003",
            "pbrMetallicRoughness" : {
                "baseColorFactor" : [
                    0.800000011920929,
                    0.800000011920929,
                    0.800000011920929,
                    1
                ],
                "metallicFactor" : 1,
                "roughnessFactor" : 1
            }
        }
    ],
    "meshes" : [
        {
            "name" : "Cylinder",
            "primitives" : [
                {
                    "attributes" : {
                        "POSITION" : 0,
                        "NORMAL" : 1,
                        "TEXCOORD_0" : 2
                    },
                    "indices" : 3,
                    "material" : 0
                },
                {
                    "attributes" : {
                        "POSITION" : 4,
                        "NORMAL" : 5,
                        "TEXCOORD_0" : 6
                    },
                    "indices" : 7,
                    "material" : 1
                },
                {
                    "attributes" : {
                        "POSITION" : 8,
                        "NORMAL" : 9,
                        "TEXCOORD_0" : 10
                    },
                    "indices" : 11,
                    "material" : 2
                }
            ]
        }
    ],
    "accessors" : [
        {
            "bufferView" : 0,
            "componentType" : 5126,
            "count" : 1086,
            "max" : [
                1.7954915761947632,
                1.9748258590698242,
                5.305260181427002
            ],
            "min" : [
                -1.7954916954040527,
                -1.3807107210159302,
                -1.7954914569854736
            ],
            "type" : "VEC3"
        },
        {
            "bufferView" : 1,
            "componentType" : 5126,
            "count" : 1086,
            "type" : "VEC3"
        },
        {
            "bufferView" : 2,
            "componentType" : 5126,
            "count" : 1086,
            "type" : "VEC2"
        },
        {
            "bufferView" : 3,
            "componentType" : 5123,
            "count" : 5490,
            "type" : "SCALAR"
        },
        {
            "bufferView" : 4,
            "componentType" : 5126,
            "count" : 1485,
            "max" : [
                1.420220136642456,
                -0.5073326826095581,
                5.305260181427002
            ],
            "min" : [
                -1.4202202558517456,
                -4.75840425491333,
                -1.420220136642456
            ],
            "type" : "VEC3"
        },
        {
            "bufferView" : 5,
            "componentType" : 5126,
            "count" : 1485,
            "type" : "VEC3"
        },
        {
            "bufferView" : 6,
            "componentType" : 5126,
            "count" : 1485,
            "type" : "VEC2"
        },
        {
            "bufferView" : 7,
            "componentType" : 5123,
            "count" : 7908,
            "type" : "SCALAR"
        },
        {
            "bufferView" : 8,
            "componentType" : 5126,
            "count" : 45,
            "max" : [
                0.3507252037525177,
                -2.965705156326294,
                0.9164900183677673
            ],
            "min" : [
                -0.3507262170314789,
                -3.2077512741088867,
                0.84672611951828
            ],
            "type" : "VEC3"
        },
        {
            "bufferView" : 9,
            "componentType" : 5126,
            "count" : 45,
            "type" : "VEC3"
        },
        {
            "bufferView" : 10,
            "componentType" : 5126,
            "count" : 45,
            "type" : "VEC2"
        },
        {
            "bufferView" : 11,
            "componentType" : 5123,
            "count" : 144,
            "type" : "SCALAR"
        }
    ],
    "bufferViews" : [
        {
            "buffer" : 0,
            "byteLength" : 13032,
            "byteOffset" : 0
        },
        {
            "buffer" : 0,
            "byteLength" : 13032,
            "byteOffset" : 13032
        },
        {
            "buffer" : 0,
            "byteLength" : 8688,
            "byteOffset" : 26064
        },
        {
            "buffer" : 0,
            "byteLength" : 10980,
            "byteOffset" : 34752
        },
        {
            "buffer" : 0,
            "byteLength" : 17820,
            "byteOffset" : 45732
        },
        {
            "buffer" : 0,
            "byteLength" : 17820,
            "byteOffset" : 63552
        },
        {
            "buffer" : 0,
            "byteLength" : 11880,
            "byteOffset" : 81372
        },
        {
            "buffer" : 0,
            "byteLength" : 15816,
            "byteOffset" : 93252
        },
        {
            "buffer" : 0,
            "byteLength" : 540,
            "byteOffset" : 109068
        },
        {
            "buffer" : 0,
            "byteLength" : 540,
            "byteOffset" : 109608
        },
        {
            "buffer" : 0,
            "byteLength" : 360,
            "byteOffset" : 110148
        },
        {
            "buffer" : 0,
            "byteLength" : 288,
            "byteOffset" : 110508
        }
    ],
    "buffers" : [
        {
            "byteLength" : 110796,
            "uri" : "Shiva.bin"
        }
    ]
}
