{
    "asset" : {
        "generator" : "Khronos glTF Blender I/O v0.9.36",
        "version" : "2.0"
    },
    "scene" : 0,
    "scenes" : [
        {
            "name" : "Scene",
            "nodes" : [
                0,
                1,
                2,
                3,
                4,
                5,
                6,
                7,
                8,
                9,
                10,
                11,
                12
            ]
        }
    ],
    "nodes" : [
        {
            "mesh" : 0,
            "name" : "Cube",
            "rotation" : [
                0.9914448857307434,
                0,
                -0.13052619993686676,
                -5.160951559446403e-07
            ],
            "translation" : [
                -0.0013162670657038689,
                0,
                0.0022245733998715878
            ]
        },
        {
            "mesh" : 1,
            "name" : "Text",
            "rotation" : [
                0.7010573744773865,
                0.09229595959186554,
                -0.09229595959186554,
                0.7010573744773865
            ],
            "scale" : [
                0.18755240738391876,
                0.18755240738391876,
                0.18755240738391876
            ],
            "translation" : [
                -0.12521108984947205,
                0.7316248416900635,
                1.086531639099121
            ]
        },
        {
            "mesh" : 2,
            "name" : "Text.001",
            "rotation" : [
                -0.09229622036218643,
                0.7010573148727417,
                -0.7010573744773865,
                -0.09229622036218643
            ],
            "scale" : [
                0.19228744506835938,
                0.19228744506835938,
                0.19228744506835938
            ],
            "translation" : [
                0.09273591637611389,
                0.6942024827003479,
                -1.068983554840088
            ]
        },
        {
            "mesh" : 3,
            "name" : "Text.002",
            "rotation" : [
                -0.4304591417312622,
                -0.5609856843948364,
                0.5609856843948364,
                -0.4304591119289398
            ],
            "scale" : [
                0.1712186336517334,
                0.1712186336517334,
                0.1712186336517334
            ],
            "translation" : [
                1.0706000328063965,
                0.8494380712509155,
                0.08586251735687256
            ]
        },
        {
            "mesh" : 4,
            "name" : "Text.003",
            "rotation" : [
                -0.5609856247901917,
                0.430459201335907,
                -0.43045923113822937,
                -0.5609856247901917
            ],
            "scale" : [
                0.1673450917005539,
                0.1673450917005539,
                0.1673450917005539
            ],
            "translation" : [
                -1.0660918951034546,
                0.8054208159446716,
                -0.06183481216430664
            ]
        },
        {
            "mesh" : 5,
            "name" : "Text.004",
            "rotation" : [
                -0.4304591417312622,
                -0.5609856843948364,
                0.5609856843948364,
                -0.4304591119289398
            ],
            "scale" : [
                0.1766955703496933,
                0.1766955703496933,
                0.1766955703496933
            ],
            "translation" : [
                0.9305406212806702,
                -0.17873819172382355,
                -0.4368456304073334
            ]
        },
        {
            "mesh" : 6,
            "name" : "Text.005",
            "rotation" : [
                -0.4304591417312622,
                -0.5609856843948364,
                0.5609856843948364,
                -0.4304591119289398
            ],
            "scale" : [
                0.18683992326259613,
                0.18683992326259613,
                0.18683992326259613
            ],
            "translation" : [
                1.2323460578918457,
                -0.3718990087509155,
                0.6895067095756531
            ]
        },
        {
            "mesh" : 7,
            "name" : "Text.006",
            "rotation" : [
                0.7010573744773865,
                0.09229595959186554,
                -0.09229595959186554,
                0.7010573744773865
            ],
            "scale" : [
                0.12684611976146698,
                0.12684611976146698,
                0.12684611976146698
            ],
            "translation" : [
                0.5111199021339417,
                -0.019733965396881104,
                0.9037357568740845
            ]
        },
        {
            "mesh" : 8,
            "name" : "Text.007",
            "rotation" : [
                0.7010573744773865,
                0.09229595959186554,
                -0.09229595959186554,
                0.7010573744773865
            ],
            "scale" : [
                0.16346265375614166,
                0.16346265375614166,
                0.16346265375614166
            ],
            "translation" : [
                -0.6589351296424866,
                -0.2504175901412964,
                1.22954261302948
            ]
        },
        {
            "mesh" : 9,
            "name" : "Text.008",
            "rotation" : [
                -0.09229622036218643,
                0.7010573148727417,
                -0.7010573744773865,
                -0.09229622036218643
            ],
            "scale" : [
                0.163682758808136,
                0.163682758808136,
                0.163682758808136
            ],
            "translation" : [
                -0.4087749719619751,
                -0.210863396525383,
                -0.9346042275428772
            ]
        },
        {
            "mesh" : 10,
            "name" : "Text.009",
            "rotation" : [
                -0.09229622036218643,
                0.7010573148727417,
                -0.7010573744773865,
                -0.09229622036218643
            ],
            "scale" : [
                0.13154703378677368,
                0.13154703378677368,
                0.13154703378677368
            ],
            "translation" : [
                0.6756644248962402,
                -0.24630744755268097,
                -1.2202996015548706
            ]
        },
        {
            "mesh" : 11,
            "name" : "Text.010",
            "rotation" : [
                -0.5609856247901917,
                0.430459201335907,
                -0.43045923113822937,
                -0.5609856247901917
            ],
            "scale" : [
                0.17130349576473236,
                0.17130349576473236,
                0.17130349576473236
            ],
            "translation" : [
                -1.225100040435791,
                -0.17450036108493805,
                -0.6552613377571106
            ]
        },
        {
            "mesh" : 12,
            "name" : "Text.011",
            "rotation" : [
                -0.5609856247901917,
                0.430459201335907,
                -0.43045923113822937,
                -0.5609856247901917
            ],
            "scale" : [
                0.17983117699623108,
                0.17983117699623108,
                0.17983117699623108
            ],
            "translation" : [
                -0.9263008832931519,
                -0.33891743421554565,
                0.45987242460250854
            ]
        }
    ],
    "materials" : [
        {
            "doubleSided" : true,
            "name" : "Material",
            "pbrMetallicRoughness" : {
                "baseColorTexture" : {
                    "index" : 0,
                    "texCoord" : 0
                },
                "metallicFactor" : 0,
                "roughnessFactor" : 0.4000000059604645
            }
        }
    ],
    "meshes" : [
        {
            "name" : "Cube",
            "primitives" : [
                {
                    "attributes" : {
                        "POSITION" : 0,
                        "NORMAL" : 1,
                        "TEXCOORD_0" : 2
                    },
                    "indices" : 3,
                    "material" : 0
                }
            ]
        },
        {
            "name" : "Text",
            "primitives" : [
                {
                    "attributes" : {
                        "POSITION" : 4,
                        "NORMAL" : 5
                    },
                    "indices" : 6
                }
            ]
        },
        {
            "name" : "Text.001",
            "primitives" : [
                {
                    "attributes" : {
                        "POSITION" : 7,
                        "NORMAL" : 8
                    },
                    "indices" : 9
                }
            ]
        },
        {
            "name" : "Text.002",
            "primitives" : [
                {
                    "attributes" : {
                        "POSITION" : 10,
                        "NORMAL" : 11
                    },
                    "indices" : 12
                }
            ]
        },
        {
            "name" : "Text.003",
            "primitives" : [
                {
                    "attributes" : {
                        "POSITION" : 13,
                        "NORMAL" : 14
                    },
                    "indices" : 15
                }
            ]
        },
        {
            "name" : "Text.004",
            "primitives" : [
                {
                    "attributes" : {
                        "POSITION" : 16,
                        "NORMAL" : 17
                    },
                    "indices" : 6
                }
            ]
        },
        {
            "name" : "Text.005",
            "primitives" : [
                {
                    "attributes" : {
                        "POSITION" : 18,
                        "NORMAL" : 19
                    },
                    "indices" : 9
                }
            ]
        },
        {
            "name" : "Text.006",
            "primitives" : [
                {
                    "attributes" : {
                        "POSITION" : 20,
                        "NORMAL" : 21
                    },
                    "indices" : 22
                }
            ]
        },
        {
            "name" : "Text.007",
            "primitives" : [
                {
                    "attributes" : {
                        "POSITION" : 23,
                        "NORMAL" : 24
                    },
                    "indices" : 12
                }
            ]
        },
        {
            "name" : "Text.008",
            "primitives" : [
                {
                    "attributes" : {
                        "POSITION" : 25,
                        "NORMAL" : 26
                    },
                    "indices" : 12
                }
            ]
        },
        {
            "name" : "Text.009",
            "primitives" : [
                {
                    "attributes" : {
                        "POSITION" : 27,
                        "NORMAL" : 28
                    },
                    "indices" : 15
                }
            ]
        },
        {
            "name" : "Text.010",
            "primitives" : [
                {
                    "attributes" : {
                        "POSITION" : 29,
                        "NORMAL" : 30
                    },
                    "indices" : 6
                }
            ]
        },
        {
            "name" : "Text.011",
            "primitives" : [
                {
                    "attributes" : {
                        "POSITION" : 31,
                        "NORMAL" : 32
                    },
                    "indices" : 9
                }
            ]
        }
    ],
    "textures" : [
        {
            "source" : 0
        }
    ],
    "images" : [
        {
            "mimeType" : "image/png",
            "name" : "arrow",
            "uri" : "arrow.png"
        }
    ],
    "accessors" : [
        {
            "bufferView" : 0,
            "componentType" : 5126,
            "count" : 16,
            "max" : [
                1,
                1,
                1
            ],
            "min" : [
                -1,
                -1,
                -1
            ],
            "type" : "VEC3"
        },
        {
            "bufferView" : 1,
            "componentType" : 5126,
            "count" : 16,
            "type" : "VEC3"
        },
        {
            "bufferView" : 2,
            "componentType" : 5126,
            "count" : 16,
            "type" : "VEC2"
        },
        {
            "bufferView" : 3,
            "componentType" : 5123,
            "count" : 24,
            "type" : "SCALAR"
        },
        {
            "bufferView" : 4,
            "componentType" : 5126,
            "count" : 1560,
            "max" : [
                4.204000473022461,
                0,
                1.0089999437332153
            ],
            "min" : [
                0.07600000500679016,
                0,
                -0.6940000057220459
            ],
            "type" : "VEC3"
        },
        {
            "bufferView" : 5,
            "componentType" : 5126,
            "count" : 1560,
            "type" : "VEC3"
        },
        {
            "bufferView" : 6,
            "componentType" : 5123,
            "count" : 3522,
            "type" : "SCALAR"
        },
        {
            "bufferView" : 7,
            "componentType" : 5126,
            "count" : 968,
            "max" : [
                4.151000022888184,
                0,
                0.009000000543892384
            ],
            "min" : [
                0.07300000637769699,
                0,
                -0.6910000443458557
            ],
            "type" : "VEC3"
        },
        {
            "bufferView" : 8,
            "componentType" : 5126,
            "count" : 968,
            "type" : "VEC3"
        },
        {
            "bufferView" : 9,
            "componentType" : 5123,
            "count" : 2157,
            "type" : "SCALAR"
        },
        {
            "bufferView" : 10,
            "componentType" : 5126,
            "count" : 1287,
            "max" : [
                5.071000576019287,
                0,
                1.0089999437332153
            ],
            "min" : [
                0.07300000637769699,
                0,
                -0.6820000410079956
            ],
            "type" : "VEC3"
        },
        {
            "bufferView" : 11,
            "componentType" : 5126,
            "count" : 1287,
            "type" : "VEC3"
        },
        {
            "bufferView" : 12,
            "componentType" : 5123,
            "count" : 2880,
            "type" : "SCALAR"
        },
        {
            "bufferView" : 13,
            "componentType" : 5126,
            "count" : 1520,
            "max" : [
                4.553000450134277,
                0,
                1.2300000190734863
            ],
            "min" : [
                0,
                0,
                -0.6820000410079956
            ],
            "type" : "VEC3"
        },
        {
            "bufferView" : 14,
            "componentType" : 5126,
            "count" : 1520,
            "type" : "VEC3"
        },
        {
            "bufferView" : 15,
            "componentType" : 5123,
            "count" : 3462,
            "type" : "SCALAR"
        },
        {
            "bufferView" : 16,
            "componentType" : 5126,
            "count" : 1560,
            "max" : [
                4.204000473022461,
                0,
                1.0089999437332153
            ],
            "min" : [
                0.07600000500679016,
                0,
                -0.6940000057220459
            ],
            "type" : "VEC3"
        },
        {
            "bufferView" : 17,
            "componentType" : 5126,
            "count" : 1560,
            "type" : "VEC3"
        },
        {
            "bufferView" : 18,
            "componentType" : 5126,
            "count" : 968,
            "max" : [
                4.151000022888184,
                0,
                0.009000000543892384
            ],
            "min" : [
                0.07300000637769699,
                0,
                -0.6910000443458557
            ],
            "type" : "VEC3"
        },
        {
            "bufferView" : 19,
            "componentType" : 5126,
            "count" : 968,
            "type" : "VEC3"
        },
        {
            "bufferView" : 20,
            "componentType" : 5126,
            "count" : 3374,
            "max" : [
                5.792000770568848,
                0,
                3.2300000190734863
            ],
            "min" : [
                0,
                0,
                -0.6820000410079956
            ],
            "type" : "VEC3"
        },
        {
            "bufferView" : 21,
            "componentType" : 5126,
            "count" : 3374,
            "type" : "VEC3"
        },
        {
            "bufferView" : 22,
            "componentType" : 5123,
            "count" : 7545,
            "type" : "SCALAR"
        },
        {
            "bufferView" : 23,
            "componentType" : 5126,
            "count" : 1287,
            "max" : [
                5.071000576019287,
                0,
                1.0089999437332153
            ],
            "min" : [
                0.07300000637769699,
                0,
                -0.6820000410079956
            ],
            "type" : "VEC3"
        },
        {
            "bufferView" : 24,
            "componentType" : 5126,
            "count" : 1287,
            "type" : "VEC3"
        },
        {
            "bufferView" : 25,
            "componentType" : 5126,
            "count" : 1287,
            "max" : [
                5.071000576019287,
                0,
                1.0089999437332153
            ],
            "min" : [
                0.07300000637769699,
                0,
                -0.6820000410079956
            ],
            "type" : "VEC3"
        },
        {
            "bufferView" : 26,
            "componentType" : 5126,
            "count" : 1287,
            "type" : "VEC3"
        },
        {
            "bufferView" : 27,
            "componentType" : 5126,
            "count" : 1520,
            "max" : [
                4.553000450134277,
                0,
                1.2300000190734863
            ],
            "min" : [
                0,
                0,
                -0.6820000410079956
            ],
            "type" : "VEC3"
        },
        {
            "bufferView" : 28,
            "componentType" : 5126,
            "count" : 1520,
            "type" : "VEC3"
        },
        {
            "bufferView" : 29,
            "componentType" : 5126,
            "count" : 1560,
            "max" : [
                4.204000473022461,
                0,
                1.0089999437332153
            ],
            "min" : [
                0.07600000500679016,
                0,
                -0.6940000057220459
            ],
            "type" : "VEC3"
        },
        {
            "bufferView" : 30,
            "componentType" : 5126,
            "count" : 1560,
            "type" : "VEC3"
        },
        {
            "bufferView" : 31,
            "componentType" : 5126,
            "count" : 968,
            "max" : [
                4.151000022888184,
                0,
                0.009000000543892384
            ],
            "min" : [
                0.07300000637769699,
                0,
                -0.6910000443458557
            ],
            "type" : "VEC3"
        },
        {
            "bufferView" : 32,
            "componentType" : 5126,
            "count" : 968,
            "type" : "VEC3"
        }
    ],
    "bufferViews" : [
        {
            "buffer" : 0,
            "byteLength" : 192,
            "byteOffset" : 0
        },
        {
            "buffer" : 0,
            "byteLength" : 192,
            "byteOffset" : 192
        },
        {
            "buffer" : 0,
            "byteLength" : 128,
            "byteOffset" : 384
        },
        {
            "buffer" : 0,
            "byteLength" : 48,
            "byteOffset" : 512
        },
        {
            "buffer" : 0,
            "byteLength" : 18720,
            "byteOffset" : 560
        },
        {
            "buffer" : 0,
            "byteLength" : 18720,
            "byteOffset" : 19280
        },
        {
            "buffer" : 0,
            "byteLength" : 7044,
            "byteOffset" : 38000
        },
        {
            "buffer" : 0,
            "byteLength" : 11616,
            "byteOffset" : 45044
        },
        {
            "buffer" : 0,
            "byteLength" : 11616,
            "byteOffset" : 56660
        },
        {
            "buffer" : 0,
            "byteLength" : 4314,
            "byteOffset" : 68276
        },
        {
            "buffer" : 0,
            "byteLength" : 15444,
            "byteOffset" : 72592
        },
        {
            "buffer" : 0,
            "byteLength" : 15444,
            "byteOffset" : 88036
        },
        {
            "buffer" : 0,
            "byteLength" : 5760,
            "byteOffset" : 103480
        },
        {
            "buffer" : 0,
            "byteLength" : 18240,
            "byteOffset" : 109240
        },
        {
            "buffer" : 0,
            "byteLength" : 18240,
            "byteOffset" : 127480
        },
        {
            "buffer" : 0,
            "byteLength" : 6924,
            "byteOffset" : 145720
        },
        {
            "buffer" : 0,
            "byteLength" : 18720,
            "byteOffset" : 152644
        },
        {
            "buffer" : 0,
            "byteLength" : 18720,
            "byteOffset" : 171364
        },
        {
            "buffer" : 0,
            "byteLength" : 11616,
            "byteOffset" : 190084
        },
        {
            "buffer" : 0,
            "byteLength" : 11616,
            "byteOffset" : 201700
        },
        {
            "buffer" : 0,
            "byteLength" : 40488,
            "byteOffset" : 213316
        },
        {
            "buffer" : 0,
            "byteLength" : 40488,
            "byteOffset" : 253804
        },
        {
            "buffer" : 0,
            "byteLength" : 15090,
            "byteOffset" : 294292
        },
        {
            "buffer" : 0,
            "byteLength" : 15444,
            "byteOffset" : 309384
        },
        {
            "buffer" : 0,
            "byteLength" : 15444,
            "byteOffset" : 324828
        },
        {
            "buffer" : 0,
            "byteLength" : 15444,
            "byteOffset" : 340272
        },
        {
            "buffer" : 0,
            "byteLength" : 15444,
            "byteOffset" : 355716
        },
        {
            "buffer" : 0,
            "byteLength" : 18240,
            "byteOffset" : 371160
        },
        {
            "buffer" : 0,
            "byteLength" : 18240,
            "byteOffset" : 389400
        },
        {
            "buffer" : 0,
            "byteLength" : 18720,
            "byteOffset" : 407640
        },
        {
            "buffer" : 0,
            "byteLength" : 18720,
            "byteOffset" : 426360
        },
        {
            "buffer" : 0,
            "byteLength" : 11616,
            "byteOffset" : 445080
        },
        {
            "buffer" : 0,
            "byteLength" : 11616,
            "byteOffset" : 456696
        }
    ],
    "buffers" : [
        {
            "byteLength" : 468312,
            "uri" : "direction2atvt.bin"
        }
    ]
}
